PathFileType	4	(x/y/z)	S02_PSF_T06
DataRate	CameraRate	NumFrames	NumMarkers	Units	OrigDataRate	OrigDataStartFrame	OrigNumFrames
240	240	4	51	mm	240	51	407
Frame#	Time	Sternum			R.Acromium			L.Acromium			Top.Head			R.ASIS			L.ASIS			R.PSIS			L.PSIS			R.Great.Tro			L.Great.Tro			R.Iliac.Crest			L.Iliac.Crest			V.Sacral			R.Thigh.Upper.Post			R.Thigh.Lower.Ant			R.Thigh.Lower.Post			R.Thigh.Upper.Ant			R.Knee.Lat			R.Knee.Med			R.Shank.Upper.Post			R.Shank.Lower.Ant			R.Shank.Lower.Post			R.Shank.Upper.Ant			R.Ankle.Lat			R.Ankle.Med			R.Heel.Upper			R.Heel.Med			R.Heel.Lat			R.Toe.Lat			R.Toe.Med			R.Toe.Tip			L.Thigh.Upper.Post			L.Thigh.Lower.Ant			L.Thigh.Lower.Post			L.Thigh.Upper.Ant			L.Knee.Lat			L.Knee.Med			L.Shank.Upper.Post			L.Shank.Lower.Ant			L.Shank.Lower.Post			L.Shank.Upper.Ant			L.Ankle.Lat			L.Ankle.Med			L.Heel.Upper			L.Heel.Med			L.Heel.Lat			L.Toe.Lat			L.Toe.Med			L.Toe.Tip			Cervical.Spine			Back			
		X1	Y1	Z1	X2	Y2	Z2	X3	Y3	Z3	X4	Y4	Z4	X5	Y5	Z5	X6	Y6	Z6	X7	Y7	Z7	X8	Y8	Z8	X9	Y9	Z9	X10	Y10	Z10	X11	Y11	Z11	X12	Y12	Z12	X13	Y13	Z13	X14	Y14	Z14	X15	Y15	Z15	X16	Y16	Z16	X17	Y17	Z17	X18	Y18	Z18	X19	Y19	Z19	X20	Y20	Z20	X21	Y21	Z21	X22	Y22	Z22	X23	Y23	Z23	X24	Y24	Z24	X25	Y25	Z25	X26	Y26	Z26	X27	Y27	Z27	X28	Y28	Z28	X29	Y29	Z29	X30	Y30	Z30	X31	Y31	Z31	X32	Y32	Z32	X33	Y33	Z33	X34	Y34	Z34	X35	Y35	Z35	X36	Y36	Z36	X37	Y37	Z37	X38	Y38	Z38	X39	Y39	Z39	X40	Y40	Z40	X41	Y41	Z41	X42	Y42	Z42	X43	Y43	Z43	X44	Y44	Z44	X45	Y45	Z45	X46	Y46	Z46	X47	Y47	Z47	X48	Y48	Z48	X49	Y49	Z49	X50	Y50	Z50	X51	Y51	Z51	

51	0.20833	-1046.4	1085.9	289.46	-1159.8	1322.6	423.17	-1156.2	1319.4	128.28	-1137.9	1612.3	270.21	-1084.7	913.4	396.71	-1061.4	915.83	186.59	NaN	NaN	NaN	NaN	NaN	NaN	-1171.4	784.03	480.98	-1168	820.76	89.053	-1197.8	951.32	448.56	-1183.2	965.06	114.14	-1320.8	908.39	279.3	-1153.8	585.92	479.48	-1089.9	507.18	464.28	-1162.4	495.99	466.8	-1087.4	596.55	473.07	-1148.5	421.33	465.71	-1129.3	398.44	319.52	-1340	355.87	435.83	-1367.7	249.24	421.35	-1401	310.75	424.29	-1310.6	288.56	440.42	-1465.2	240.22	411.56	-1432.6	239.34	330.55	-1493.5	292.1	356.49	-1508.5	273.38	321.19	-1531.8	276.03	384.32	-1483.9	118.2	419.87	-1454.7	97.703	316.34	-1420.8	57.567	372.14	-1143.2	588.71	119.7	-1048.5	532.74	132.31	-1121.9	503.86	146.93	-1079.5	619.51	106.87	-1047.6	448.74	148.34	-1052.5	454.5	285.55	-1134	284.56	151.23	-1074.9	192.98	175.21	-1143.2	214.45	166.88	-1074.1	266.56	156.12	-1133.9	99.672	191.42	-1124.4	95.203	271.35	-1195.5	67.383	223.41	-1188.2	41.56	256.75	-1188.3	39.84	195.07	-1021.5	34.874	170.95	-1003.6	44.003	282	-941.87	59.479	236.01	-1243.3	1384.9	275.35	-1312.5	1131.4	289.87
52	0.2125	-1041	1086.6	289.68	-1154.9	1323.6	423.17	-1150.3	1320	128.05	-1132.6	1613.2	269.94	-1079.5	914.1	396.68	-1056.3	916.31	186.34	NaN	NaN	NaN	NaN	NaN	NaN	-1166.2	785.07	480.88	-1163.2	821.36	88.905	-1192.2	951.72	448.28	-1178.2	965.76	113.96	-1315.8	909.21	278.99	-1145.5	587.23	479.94	-1080.8	509.25	465.18	-1153.1	497.26	467.42	-1079	598.71	473.81	-1138	422.94	466.56	-1118.3	399.75	320.36	-1329.3	357.1	435.94	-1356.6	250.39	421.54	-1389.9	311.79	424.28	-1299.8	289.84	440.79	-1454	241.34	411.35	-1421.1	240.17	330.43	-1482.6	292.65	355.7	-1497.2	273.47	320.47	-1521	276.69	383.57	-1472.2	119.53	420.75	-1442.2	98.211	317.45	-1408.4	58.511	373.64	-1140.2	589.26	119.71	-1045.9	532.52	132.41	-1119.6	504.22	146.91	-1076.2	619.55	106.96	-1045.8	448.5	148.47	-1051.1	454.21	285.64	-1133.1	284.69	151.36	-1074.3	192.84	175.23	-1142.5	214.66	166.82	-1073.3	266.41	156.16	-1133.9	99.802	191.47	-1124.4	95.255	271.33	-1195.4	67.5	223.45	-1188.1	41.668	256.75	-1188.3	39.962	195.09	-1021.5	34.87	170.97	-1003.6	43.966	282.03	-941.83	59.419	236.03	-1237.9	1385.8	274.88	-1307.3	1132.3	289.04
53	0.21667	-1035.7	1087.3	289.92	-1150.1	1324.6	423.17	-1144.6	1320.7	127.83	-1127.3	1614	269.69	-1074.4	914.84	396.66	-1051.2	916.78	186.09	NaN	NaN	NaN	NaN	NaN	NaN	-1161	786.16	480.79	-1158.5	821.96	88.774	-1186.6	952.23	448.04	-1173.1	966.47	113.78	-1310.8	910.11	278.72	-1137.2	588.62	480.39	-1071.6	511.4	466	-1143.8	498.63	468.01	-1070.7	600.94	474.51	-1127.6	424.64	467.36	-1107.5	401.2	321.16	-1318.6	358.21	435.98	-1345.4	251.38	421.71	-1378.8	312.64	424.22	-1289	291.06	441.1	-1442.5	242.2	411.11	-1409.5	240.78	330.28	-1471.7	292.85	354.87	-1485.9	273.14	319.72	-1510.1	276.93	382.79	-1460.2	120.58	421.64	-1429.3	98.503	318.55	-1395.5	59.396	375.16	-1137.3	589.83	119.75	-1043.4	532.32	132.54	-1117.4	504.61	146.9	-1072.9	619.61	107.07	-1044.1	448.29	148.62	-1049.6	453.95	285.74	-1132.2	284.84	151.48	-1073.8	192.74	175.27	-1141.9	214.85	166.79	-1072.5	266.29	156.22	-1133.8	99.939	191.51	-1124.3	95.326	271.32	-1195.4	67.625	223.48	-1188.1	41.789	256.76	-1188.2	40.088	195.1	-1021.5	34.865	171	-1003.5	43.931	282.07	-941.79	59.357	236.05	-1232.4	1386.7	274.43	-1302.1	1133.2	288.22
54	0.22083	-1030.4	1088	290.16	-1145.3	1325.6	423.17	-1138.8	1321.4	127.64	-1122	1614.9	269.47	-1069.2	915.6	396.62	-1046.1	917.27	185.83	NaN	NaN	NaN	NaN	NaN	NaN	-1155.8	787.29	480.71	-1153.8	822.56	88.66	-1181.1	952.86	447.83	-1168.1	967.2	113.6	-1305.8	911.09	278.5	-1128.9	590.1	480.82	-1062.5	513.64	466.75	-1134.5	500.09	468.57	-1062.4	603.23	475.15	-1117.3	426.42	468.09	-1096.8	402.79	321.9	-1307.9	359.21	435.96	-1334.1	252.19	421.85	-1367.6	313.29	424.12	-1278.1	292.2	441.36	-1431	242.78	410.85	-1397.8	241.16	330.1	-1460.8	292.7	354.01	-1474.5	272.43	318.97	-1499.1	276.76	381.99	-1447.7	121.36	422.51	-1416	98.579	319.63	-1382.2	60.214	376.69	-1134.4	590.43	119.81	-1040.9	532.14	132.69	-1115.2	505.03	146.92	-1069.7	619.69	107.21	-1042.5	448.12	148.78	-1048.2	453.72	285.85	-1131.3	285	151.6	-1073.2	192.66	175.32	-1141.3	215.04	166.78	-1071.7	266.2	156.29	-1133.7	100.08	191.55	-1124.2	95.416	271.31	-1195.3	67.757	223.51	-1188	41.922	256.77	-1188.2	40.22	195.12	-1021.5	34.86	171.02	-1003.5	43.899	282.1	-941.74	59.293	236.07	-1227	1387.6	274.01	-1296.9	1134.2	287.42
